<?xml version="1.0" encoding="iso-8859-1"?>
<!-- Uploaded to: SVG Repo, www.svgrepo.com, Generator: SVG Repo Mixer Tools -->
<svg fill="#000000" height="800px" width="800px" version="1.1" id="Layer_1" xmlns="http://www.w3.org/2000/svg" xmlns:xlink="http://www.w3.org/1999/xlink" 
	 viewBox="0 0 512.001 512.001" xml:space="preserve">
<g>
	<g>
		<path d="M437.019,74.981C388.667,26.629,324.381,0.001,256.001,0.001S123.333,26.629,74.981,74.981S0,187.62,0,256
			c0,85.027,42.076,164.304,112.555,212.067c4.064,2.756,9.592,1.693,12.345-2.372c2.755-4.064,1.693-9.591-2.372-12.345
			C56.938,408.9,17.779,335.124,17.779,256c0-131.354,106.866-238.221,238.222-238.221S494.221,124.646,494.221,256
			c0,131.356-106.866,238.222-238.221,238.222c-38.401,0-76.555-9.349-110.335-27.037c-4.351-2.278-9.723-0.597-11.999,3.753
			s-0.597,9.721,3.752,11.999c36.316,19.014,77.32,29.063,118.582,29.063c68.38,0,132.668-26.629,181.02-74.981
			c48.352-48.352,74.981-112.64,74.981-181.02S485.371,123.333,437.019,74.981z"/>
	</g>
</g>
<g>
	<g>
		<path d="M400.196,175.01c-2.408-4.278-7.827-5.795-12.107-3.386c-4.278,2.408-5.795,7.828-3.386,12.107
			c12.348,21.939,18.875,46.93,18.875,72.269c0,81.375-66.203,147.578-147.577,147.578c-81.375,0-147.578-66.203-147.578-147.578
			c0-81.374,66.203-147.577,147.578-147.577c44.204,0,85.712,19.576,113.88,53.708c3.125,3.786,8.727,4.323,12.515,1.198
			c3.787-3.125,4.323-8.728,1.198-12.515c-31.558-38.24-78.065-60.17-127.594-60.17c-91.178,0-165.357,74.178-165.357,165.356
			c0,91.178,74.178,165.357,165.357,165.357c91.177,0,165.356-74.178,165.356-165.357
			C421.356,227.612,414.04,199.606,400.196,175.01z"/>
	</g>
</g>
<g>
	<g>
		<path d="M329.285,188.76c-2.414-4.275-7.838-5.782-12.111-3.368c-4.275,2.414-5.783,7.837-3.368,12.111
			c1.343,2.379,2.053,5.094,2.053,7.852c0,8.823-7.178,16.001-16.001,16.001s-16.001-7.178-16.001-16.001
			c0-8.823,7.178-16.001,16.001-16.001c4.909,0,8.889-3.98,8.889-8.889c0-4.909-3.98-8.889-8.889-8.889
			c-18.626,0-33.779,15.153-33.779,33.779c0,18.626,15.153,33.779,33.779,33.779s33.779-15.155,33.779-33.781
			C333.638,199.539,332.132,193.8,329.285,188.76z"/>
	</g>
</g>
<g>
	<g>
		<path d="M206.224,299.58c-16.666,0-30.224,13.558-30.224,30.224s13.558,30.224,30.224,30.224s30.224-13.558,30.224-30.224
			S222.89,299.58,206.224,299.58z M206.224,342.249c-6.863,0-12.445-5.583-12.445-12.445s5.583-12.445,12.445-12.445
			s12.445,5.583,12.445,12.445S213.086,342.249,206.224,342.249z"/>
	</g>
</g>
<g>
	<g>
		<circle cx="298.669" cy="291.879" r="8.889"/>
	</g>
</g>
<g>
	<g>
		<circle cx="225.184" cy="194.689" r="8.889"/>
	</g>
</g>
<g>
	<g>
		<circle cx="168.293" cy="234.987" r="8.889"/>
	</g>
</g>
</svg>